<?xml version="1.0" standalone="no"?>
<!DOCTYPE svg PUBLIC "-//W3C//DTD SVG 20010904//EN"
 "http://www.w3.org/TR/2001/REC-SVG-20010904/DTD/svg10.dtd">
<svg version="1.0" xmlns="http://www.w3.org/2000/svg"
 width="2977.000000pt" height="1186.000000pt" viewBox="0 0 2977.000000 1186.000000"
 preserveAspectRatio="xMidYMid meet">

<g transform="translate(0.000000,1186.000000) scale(0.100000,-0.100000)"
fill="#ffffff" stroke="none">
<path d="M14437 10719 c-40 -24 -60 -106 -36 -152 7 -12 49 -58 93 -102 139
-137 227 -281 282 -460 26 -83 28 -103 28 -260 0 -156 -2 -177 -27 -258 -51
-167 -134 -304 -256 -428 -128 -128 -285 -218 -457 -261 -72 -18 -116 -22
-229 -22 -186 1 -286 27 -480 124 -77 38 -149 70 -160 70 -28 0 -81 -34 -95
-61 -21 -38 -6 -110 42 -207 126 -251 242 -372 566 -587 72 -48 132 -91 132
-96 0 -4 -52 -55 -115 -114 l-116 -108 -37 12 c-21 7 -65 27 -98 44 -66 36
-52 8 -126 252 -160 531 -620 936 -1183 1041 -149 28 -443 26 -582 -4 -488
-105 -879 -422 -1093 -886 -50 -109 -55 -117 -77 -111 -57 14 -223 35 -278 35
-227 0 -466 -84 -643 -226 -106 -85 -170 -164 -257 -318 -39 -69 -100 -133
-138 -145 -18 -5 -93 -12 -167 -14 -291 -11 -546 -123 -755 -332 -248 -248
-373 -590 -343 -940 13 -162 90 -394 142 -431 39 -27 95 -16 144 29 31 29 29
80 -9 185 -44 126 -60 213 -60 332 0 194 53 364 171 544 168 257 440 396 777
396 184 0 335 -41 495 -135 87 -51 130 -57 172 -24 31 24 56 69 56 100 0 35
-58 81 -200 158 -74 41 -137 75 -139 77 -7 6 80 157 124 214 139 180 352 289
600 306 145 11 309 -31 448 -112 102 -60 165 -57 207 12 38 61 24 108 -45 148
-61 36 -65 59 -25 154 67 159 154 285 292 418 148 143 288 229 486 298 479
167 989 50 1348 -308 158 -159 255 -318 323 -531 38 -117 39 -133 6 -140 -14
-3 -37 -7 -51 -11 -34 -7 -87 -47 -103 -78 -16 -28 -5 -53 42 -103 l31 -33
111 0 c188 0 313 -47 426 -159 119 -119 163 -236 163 -439 l1 -134 33 -29 c26
-24 41 -29 81 -29 63 0 84 24 101 117 7 38 16 74 19 80 11 21 187 -100 276
-191 178 -179 267 -371 282 -606 4 -74 1 -127 -17 -237 -20 -122 -21 -145 -10
-173 26 -64 118 -92 161 -49 29 29 45 71 63 167 50 264 20 512 -89 740 -102
212 -233 352 -461 492 -169 104 -309 234 -362 339 -47 93 -44 107 36 183 116
109 251 171 409 187 155 16 221 -15 244 -113 14 -62 42 -118 71 -146 49 -45
148 -12 168 58 11 34 9 48 -19 128 -44 127 -61 215 -61 324 0 222 86 411 262
575 239 224 524 282 836 169 80 -29 222 -116 222 -136 0 -7 -26 -31 -58 -53
-86 -60 -217 -190 -268 -266 -63 -95 -112 -205 -140 -317 -40 -158 -30 -212
44 -232 49 -13 105 2 126 34 8 13 25 64 36 112 70 291 281 514 560 590 99 28
291 26 395 -4 102 -29 203 -80 277 -140 68 -54 158 -164 194 -234 l24 -48 -22
-9 c-102 -40 -140 -57 -200 -92 -174 -102 -306 -282 -353 -481 -21 -91 -19
-125 10 -153 19 -20 34 -25 75 -25 71 0 98 29 135 143 83 261 302 418 565 404
148 -7 283 -70 390 -181 44 -46 97 -62 143 -42 39 16 77 60 77 88 0 40 -64
126 -117 159 -44 27 -66 71 -58 112 4 18 25 68 46 111 184 370 565 606 979
606 473 0 904 -323 1035 -776 53 -181 69 -371 36 -432 -8 -15 -45 -24 -203
-51 -106 -18 -210 -37 -230 -42 -67 -17 -84 -68 -48 -146 25 -56 44 -60 202
-38 358 49 594 -27 819 -262 168 -176 250 -396 236 -633 -10 -162 -57 -301
-157 -459 -54 -86 -55 -130 -4 -177 68 -65 127 -43 207 79 275 415 227 968
-115 1342 -87 95 -203 178 -333 241 -61 29 -119 62 -130 73 -16 19 -19 41 -22
183 -3 182 -22 313 -64 440 -92 284 -296 536 -559 692 -429 255 -968 247
-1382 -19 -216 -140 -375 -324 -484 -561 l-49 -106 -67 6 c-98 9 -114 19 -155
101 -137 273 -351 459 -618 535 -109 31 -273 45 -385 33 -119 -14 -135 -8
-299 101 -69 46 -159 100 -198 120 -104 52 -107 57 -114 261 -10 243 -47 401
-141 590 -190 381 -552 660 -965 744 -108 22 -217 27 -246 10z m515 -342 c269
-138 477 -391 573 -697 55 -176 71 -415 31 -459 -12 -13 -37 -22 -75 -26 -293
-31 -468 -94 -642 -233 -194 -155 -337 -430 -365 -705 -4 -36 -10 -70 -14 -77
-11 -19 -119 -29 -206 -19 -222 24 -480 145 -653 305 -60 55 -107 111 -100
119 2 2 27 -1 54 -6 234 -44 509 -26 698 45 171 64 312 159 448 303 234 247
341 533 326 873 -8 195 -47 342 -137 523 -32 65 -44 97 -34 97 7 0 50 -19 96
-43z"/>
<path d="M17952 10255 c-63 -28 -81 -138 -31 -191 90 -96 251 -5 209 119 -23
73 -105 106 -178 72z"/>
<path d="M10674 10106 c-29 -29 -34 -41 -34 -80 0 -88 39 -126 126 -126 39 0
51 5 80 34 28 28 34 42 34 75 0 84 -45 131 -123 131 -42 0 -54 -5 -83 -34z"/>
<path d="M13633 9709 c-51 -15 -83 -61 -83 -121 0 -44 4 -54 34 -84 30 -30 40
-34 86 -34 46 0 56 4 86 34 30 30 34 40 34 84 0 72 -34 111 -110 127 -8 2 -29
-1 -47 -6z"/>
<path d="M19365 9688 c-27 -24 -48 -89 -39 -123 18 -67 56 -95 126 -95 50 0
82 19 103 60 29 55 12 130 -37 164 -35 25 -121 21 -153 -6z"/>
<path d="M16937 9569 c-27 -16 -47 -64 -47 -113 0 -36 6 -52 28 -77 24 -27 37
-33 85 -37 54 -4 58 -3 92 31 30 30 35 42 35 81 0 58 -17 94 -51 112 -32 16
-116 18 -142 3z"/>
<path d="M10125 8899 c-40 -23 -55 -52 -55 -107 0 -29 5 -62 10 -73 16 -29 63
-49 116 -49 39 0 51 5 81 35 34 34 35 38 31 91 -6 76 -36 106 -110 111 -29 2
-62 -2 -73 -8z"/>
<path d="M11745 8719 c-223 -33 -443 -139 -618 -299 -64 -58 -87 -95 -87 -137
0 -77 105 -130 170 -86 14 9 52 42 85 73 106 100 241 173 400 216 108 29 352
27 460 -4 111 -32 248 -101 325 -163 96 -78 130 -99 159 -99 39 0 90 36 107
75 20 48 3 86 -67 149 -157 142 -380 246 -593 275 -89 13 -254 12 -341 0z"/>
<path d="M18686 8640 c-161 -35 -393 -172 -433 -255 -32 -67 22 -145 101 -145
42 0 65 11 123 61 49 42 115 78 196 107 63 22 88 26 207 26 123 1 142 -2 215
-27 108 -38 178 -83 270 -172 75 -73 78 -75 127 -75 65 0 108 38 108 97 0 43
-14 68 -74 131 -100 107 -245 194 -391 237 -125 37 -320 44 -449 15z"/>
<path d="M8643 8315 c-38 -16 -73 -68 -73 -108 0 -15 6 -43 14 -62 37 -88 185
-87 222 2 26 61 -5 145 -61 169 -42 17 -61 17 -102 -1z"/>
<path d="M18488 7189 c-184 -25 -433 -170 -504 -294 -10 -19 -14 -18 -92 19
-45 21 -105 44 -134 52 -74 19 -201 27 -275 16 -75 -10 -93 -4 -185 66 -143
108 -267 146 -448 140 -184 -7 -312 -62 -441 -190 -128 -128 -195 -309 -186
-504 7 -148 36 -192 121 -181 29 4 49 15 69 37 26 29 27 35 27 133 0 165 36
263 132 360 98 100 248 151 373 128 169 -31 300 -146 360 -314 19 -55 27 -65
66 -84 24 -13 60 -23 80 -23 33 0 39 4 55 38 13 25 18 58 18 103 l-1 67 40 5
c22 3 66 1 99 -4 166 -27 304 -151 354 -319 12 -40 20 -50 59 -69 63 -32 109
-37 140 -17 39 26 34 82 -20 219 -61 156 -60 177 9 242 107 102 256 156 426
156 175 0 287 -48 415 -176 86 -85 142 -180 166 -280 16 -66 43 -120 71 -139
54 -38 152 -4 163 56 9 48 -36 211 -85 311 -78 161 -192 272 -365 357 -158 78
-348 111 -507 89z"/>
<path d="M8855 7094 c-291 -80 -479 -254 -581 -538 -58 -165 -42 -232 60 -243
42 -5 48 -3 80 29 21 21 39 52 45 79 38 148 97 256 182 333 70 63 124 92 244
131 126 42 142 51 156 92 17 52 -4 111 -46 129 -41 17 -30 18 -140 -12z"/>
<path d="M10110 6694 c-115 -19 -154 -30 -218 -56 -282 -117 -452 -340 -482
-635 -18 -175 1 -223 90 -223 90 0 113 30 125 168 16 187 103 334 256 436 132
87 303 113 438 67 110 -38 109 -35 34 -121 -94 -108 -123 -156 -123 -205 0
-50 21 -73 80 -86 54 -12 67 -5 171 100 134 135 238 181 410 181 215 0 375
-95 490 -291 21 -37 51 -77 65 -88 45 -36 134 -23 166 23 15 21 8 87 -13 129
-68 133 -199 276 -315 345 -38 22 -105 53 -149 69 -77 27 -87 28 -280 29
l-200 0 -105 56 c-58 31 -137 66 -176 76 -71 20 -217 34 -264 26z"/>
<path d="M10765 5094 c-11 -2 -45 -9 -75 -15 -164 -33 -326 -162 -408 -325
-67 -132 -67 -135 -67 -604 l0 -425 28 -80 c37 -104 87 -185 157 -254 242
-241 640 -239 885 3 56 55 82 92 117 162 67 134 70 164 66 640 -4 390 -5 412
-25 467 -78 207 -222 348 -416 409 -59 18 -220 32 -262 22z m205 -370 c61 -33
114 -93 135 -154 23 -64 22 -765 -1 -833 -20 -60 -79 -126 -140 -157 -67 -34
-179 -35 -242 -2 -62 33 -118 95 -142 158 -19 51 -20 77 -20 418 0 427 0 428
90 518 94 93 210 112 320 52z"/>
<path d="M7804 5046 l-34 -34 0 -856 0 -856 29 -32 29 -33 339 -3 c205 -2 365
1 408 8 216 33 398 213 435 431 28 165 -14 310 -132 451 l-39 47 37 48 c209
272 133 643 -164 801 -104 55 -157 62 -535 62 l-339 0 -34 -34z m719 -317 c51
-14 113 -77 127 -130 25 -91 -37 -200 -128 -227 -23 -7 -104 -12 -191 -12
-158 0 -201 9 -215 45 -10 28 -7 275 5 296 6 11 20 24 32 29 31 12 325 12 370
-1z m32 -728 c77 -35 135 -122 135 -205 0 -78 -50 -160 -123 -199 -39 -20 -55
-22 -225 -22 l-184 0 -24 28 c-23 27 -24 33 -24 193 l0 166 29 29 29 29 174 0
c146 0 179 -3 213 -19z"/>
<path d="M11894 5070 c-12 -4 -31 -21 -43 -36 l-21 -27 0 -853 0 -854 29 -32
29 -33 369 0 c329 0 374 2 428 18 213 66 385 239 440 443 21 79 22 250 0 328
-27 102 -82 194 -165 277 -83 83 -138 118 -250 156 -68 24 -94 27 -283 32
l-209 6 -24 28 c-19 22 -24 39 -24 83 0 65 18 105 55 122 18 9 121 12 356 12
l331 0 29 29 c28 29 29 32 29 136 0 58 -5 115 -10 126 -26 48 -36 49 -557 48
-268 0 -498 -4 -509 -9z m787 -962 c102 -60 143 -140 138 -266 -3 -66 -9 -86
-34 -127 -35 -57 -100 -110 -153 -125 -20 -5 -117 -10 -214 -10 l-178 0 -32
29 -33 29 -3 217 -3 216 35 35 36 36 197 -4 c195 -3 199 -3 244 -30z"/>
<path d="M13853 5066 c-27 -13 -34 -24 -52 -83 -55 -190 -431 -1654 -431
-1681 0 -21 8 -37 26 -51 23 -18 41 -21 131 -21 68 0 116 5 138 14 19 8 35 17
35 20 0 3 65 263 145 578 100 393 151 577 162 586 22 16 38 15 56 -2 7 -8 73
-249 146 -537 173 -688 155 -628 196 -645 22 -9 71 -14 140 -14 99 0 107 2
130 25 14 13 25 33 25 44 0 11 -101 406 -225 877 -171 654 -229 862 -245 878
-19 19 -34 21 -183 23 -123 2 -170 -1 -194 -11z"/>
<path d="M15403 5070 c-12 -5 -28 -19 -37 -32 -15 -24 -456 -1705 -456 -1739
0 -11 11 -31 25 -44 23 -23 31 -25 130 -25 69 0 118 5 140 14 30 13 36 22 55
88 31 108 39 126 63 132 12 3 131 6 263 6 216 0 244 -2 262 -17 11 -11 29 -54
42 -107 22 -82 26 -89 56 -102 21 -9 72 -14 137 -14 90 0 108 3 131 21 18 14
26 30 26 52 0 17 -99 411 -221 876 -206 792 -222 848 -250 874 l-29 27 -158
-1 c-86 0 -167 -4 -179 -9z m200 -642 c19 -15 172 -572 163 -594 -7 -19 -371
-20 -378 -1 -8 19 142 570 159 590 19 20 33 21 56 5z"/>
<path d="M16628 5064 c-60 -32 -58 5 -58 -909 0 -918 -3 -878 60 -910 40 -21
181 -20 225 0 49 24 55 49 55 216 0 158 9 197 49 219 11 5 80 10 154 10 186 0
177 7 287 -233 47 -103 94 -195 103 -204 13 -14 40 -18 122 -21 58 -3 121 -1
140 2 44 9 75 38 75 70 0 13 -76 192 -170 399 -93 207 -170 385 -170 398 0 12
24 85 54 163 222 579 266 699 266 721 0 13 -13 39 -29 57 l-29 33 -111 0 c-97
0 -113 -2 -129 -20 -23 -24 -34 -53 -218 -544 -84 -224 -153 -394 -166 -408
-50 -54 -158 -48 -202 10 -20 28 -21 41 -26 465 -3 240 -9 445 -14 455 -16 33
-60 47 -153 47 -58 -1 -97 -6 -115 -16z"/>
<path d="M18583 5061 c-17 -11 -34 -28 -37 -38 -3 -10 -105 -400 -226 -867
-138 -529 -219 -858 -216 -872 12 -47 44 -56 176 -53 144 5 148 7 179 124 31
120 17 115 311 115 289 0 280 3 305 -100 33 -135 40 -140 197 -140 129 0 158
14 158 77 0 38 -435 1705 -452 1733 -21 34 -55 40 -211 40 -132 0 -156 -3
-184 -19z m210 -634 c20 -14 172 -569 163 -593 -7 -19 -371 -21 -378 -1 -6 18
144 572 161 591 16 19 31 20 54 3z"/>
<path d="M19698 5051 c-61 -54 -58 -60 186 -490 120 -212 219 -394 219 -406 0
-11 -99 -194 -219 -405 -241 -424 -245 -434 -191 -487 26 -27 32 -28 141 -31
170 -5 155 -19 319 272 76 134 144 247 152 250 26 10 53 -28 182 -258 93 -167
136 -234 158 -247 24 -15 50 -19 131 -19 56 0 115 5 133 11 35 12 61 53 61 96
0 17 -80 169 -220 414 -121 213 -220 395 -220 404 0 9 99 191 220 405 231 408
241 429 202 476 -29 37 -57 44 -169 44 -87 0 -114 -4 -138 -19 -22 -13 -66
-81 -163 -254 -73 -129 -139 -240 -146 -246 -8 -6 -20 -9 -29 -5 -9 3 -78 115
-153 249 -95 168 -146 248 -165 259 -21 12 -55 16 -143 16 -114 0 -116 -1
-148 -29z"/>
<path d="M12787 2346 c-108 -40 -166 -113 -174 -220 -9 -113 36 -200 128 -251
139 -75 326 -22 388 110 25 53 29 167 7 219 -20 47 -73 104 -120 128 -52 27
-174 35 -229 14z m166 -80 c117 -50 144 -210 51 -298 -53 -49 -123 -61 -191
-33 -50 21 -72 42 -94 90 -55 119 30 255 159 255 23 0 57 -6 75 -14z"/>
<path d="M15737 2346 c-63 -23 -113 -64 -143 -119 -24 -44 -28 -63 -28 -127 0
-89 21 -137 83 -193 78 -71 226 -86 330 -35 l46 23 3 103 3 102 -41 0 -40 0 0
-76 0 -75 -35 -15 c-75 -31 -178 -6 -222 55 -69 92 -39 227 61 272 58 26 122
24 181 -5 50 -26 68 -24 96 10 12 14 10 19 -16 40 -61 50 -196 69 -278 40z"/>
<path d="M11830 2100 l0 -250 175 0 175 0 0 35 0 34 -127 3 -128 3 -3 213 -2
212 -45 0 -45 0 0 -250z"/>
<path d="M13650 2173 c0 -199 9 -235 69 -286 89 -74 268 -57 328 33 36 52 43
95 43 268 l0 162 -45 0 -45 0 0 -160 c0 -171 -7 -207 -50 -245 -17 -15 -36
-20 -81 -20 -53 0 -62 3 -91 33 l-33 32 -3 180 -3 180 -45 0 -44 0 0 -177z"/>
<path d="M14620 2100 l0 -250 45 0 45 0 2 167 3 168 135 -167 135 -167 43 -1
42 0 0 250 0 250 -45 0 -45 0 0 -165 c0 -91 -3 -165 -7 -165 -5 0 -68 74 -142
165 -131 162 -134 165 -172 165 l-39 0 0 -250z"/>
<path d="M16550 2100 l0 -250 190 0 190 0 0 35 0 34 -142 3 -143 3 0 70 0 70
123 3 122 3 0 34 0 34 -122 3 -123 3 0 65 0 65 138 3 137 3 0 34 0 35 -185 0
-185 0 0 -250z"/>
</g>
</svg>
